<svg width="306" height="306" viewBox="0 0 306 306" fill="none" xmlns="http://www.w3.org/2000/svg">
<g clip-path="url(#clip0_17_24)">
<g clip-path="url(#clip1_17_24)">
<g clip-path="url(#clip2_17_24)">
<g clip-path="url(#clip3_17_24)">
<g clip-path="url(#clip4_17_24)">
<g clip-path="url(#clip5_17_24)">
<g clip-path="url(#clip6_17_24)">
<g clip-path="url(#clip7_17_24)">
<g clip-path="url(#clip8_17_24)">
<path d="M153.662 190.293C144.717 188.32 138.756 184.719 135.905 181.092C135.057 180.015 134.517 178.947 134.219 177.912C134.044 177.301 133.935 176.7 133.952 176.125C133.994 174.908 134.517 173.589 135.613 172.293C137.265 170.329 140.255 168.412 144.946 166.907C141.381 166.034 138.241 164.979 135.49 163.787C132.297 165.729 130.303 167.867 129.088 169.877C127.665 172.248 127.29 174.434 127.24 175.891C127.157 178.314 127.807 180.677 129.074 182.916C129.607 183.86 130.239 184.781 130.987 185.677C135.195 190.68 142.686 194.756 152.216 196.86C158.159 198.168 160.834 200.836 160.857 202.901C160.865 203.747 160.408 204.707 159.486 205.646C158.799 206.347 157.848 207.033 156.611 207.658C156.529 207.695 156.444 207.736 156.358 207.773V207.461V204.042V202.008C155.446 201.394 153.917 200.673 151.495 200.139C150.86 199.997 150.259 199.827 149.642 199.67V207.735C146.61 206.27 145.194 204.412 145.209 202.899C145.22 201.742 146.095 200.409 147.871 199.222C145.361 198.503 142.997 197.644 140.796 196.658C139.205 198.681 138.509 200.862 138.49 202.835C138.448 207.028 141.431 212.194 149.642 214.97C150.49 215.26 151.375 215.524 152.336 215.757H153.724C154.665 215.529 155.529 215.273 156.358 214.991C158.268 214.353 159.9 213.579 161.273 212.719C162.293 212.082 163.192 211.389 163.942 210.673C166.537 208.185 167.595 205.335 167.574 202.834C167.531 198.245 163.852 192.545 153.662 190.293Z" fill="#34B3E5"/>
<path d="M156.356 185.722V169.102C155.071 168.811 153.675 168.547 152.128 168.323C151.275 168.188 150.45 168.05 149.64 167.906V185.697C150.737 186.064 151.889 186.392 153.077 186.689L153.804 186.495C154.702 186.258 155.542 185.993 156.356 185.722Z" fill="#34B3E5"/>
<path d="M225.125 111.253V104.537C202.797 104.537 177.639 91.8189 177.388 91.6891L174.556 90.2433L172.958 92.9969C168.832 100.113 161.182 104.537 153 104.537C144.81 104.537 137.164 100.115 133.042 92.9969L131.444 90.2433L128.609 91.6891C128.354 91.8189 103.203 104.537 80.875 104.537V111.253C100.618 111.253 121.565 102.415 128.939 98.9881C129.978 100.411 131.136 101.73 132.396 102.939C127.053 106.124 116.742 111.371 106.749 111.371V118.087C120.169 118.087 133.369 110.39 138.176 107.265C141.673 109.28 145.569 110.587 149.637 111.055V154.181C151.147 154.527 152.65 154.814 154.114 155.032C154.883 155.146 155.628 155.27 156.354 155.399V111.055C160.427 110.587 164.327 109.28 167.819 107.265C172.621 110.39 185.825 118.087 199.245 118.087V111.371C189.248 111.371 178.938 106.12 173.602 102.934C174.857 101.73 176.014 100.41 177.058 98.9881C184.434 102.413 205.38 111.253 225.125 111.253Z" fill="#34B3E5"/>
<path d="M175.912 121.65C175.303 121.427 169.836 119.569 165.603 122.022C164.067 122.913 162.115 124.716 161.496 128.276L168.119 129.423C168.327 128.212 168.792 127.937 168.965 127.836C170.06 127.194 172.4 127.535 173.516 127.921C178.313 129.858 181.029 134.403 180.427 139.509C179.718 145.518 174.153 152.575 161.142 156.438C164.997 157.43 168.156 158.656 170.735 160.023C184.273 153.564 186.678 143.831 187.094 140.293C188.046 132.22 183.602 124.743 175.912 121.65Z" fill="#34B3E5"/>
<path d="M153.619 158.355C134.283 155.462 126.482 146.722 125.636 139.513C125.033 134.409 127.742 129.858 132.412 127.973C133.162 127.711 134.312 127.482 135.347 127.482C136.03 127.482 136.661 127.582 137.089 127.835C137.267 127.939 137.732 128.213 137.942 129.422L144.558 128.272C143.941 124.719 141.987 122.91 140.457 122.025C138.82 121.074 136.996 120.768 135.334 120.768C132.704 120.768 130.479 121.531 130.032 121.695C122.459 124.746 118.011 132.218 118.962 140.298C119.512 144.996 123.575 160.65 152.622 164.998C166.774 167.112 171.966 172.134 172.103 176.118C172.241 180.081 167.774 185.091 158.954 188.375C161.91 189.497 164.243 190.939 166.027 192.558C174.181 188.352 179.034 182.308 178.816 175.888C178.68 171.73 175.934 161.692 153.619 158.355Z" fill="#34B3E5"/>
</g>
</g>
<path d="M37.3517 108.772C36.3222 111.426 34.754 113.624 32.648 115.367C30.5421 117.112 28.1203 118.201 25.3816 118.637C22.6528 119.069 19.8933 118.744 17.1043 117.661C14.3154 116.578 12.0663 114.96 10.357 112.806C8.64343 110.642 7.59866 108.206 7.22053 105.498C6.8424 102.79 7.16917 100.109 8.19864 97.4556C9.23904 94.7748 10.8128 92.5628 12.9187 90.8197C15.0268 89.069 17.4398 87.9838 20.1567 87.5619C22.867 87.1379 25.6166 87.4679 28.4045 88.5499C31.1934 89.6329 33.4524 91.247 35.1802 93.3934C36.9146 95.5431 37.9703 97.9747 38.3451 100.689C38.7232 103.397 38.3921 106.091 37.3517 108.772ZM33.2896 107.195C34.0218 105.309 34.2447 103.459 33.9573 101.644C33.6742 99.8402 32.8939 98.2096 31.6153 96.7539C30.3377 95.2972 28.6471 94.1617 26.5444 93.3442C24.4407 92.5279 22.4331 92.2284 20.5206 92.447C18.6092 92.6656 16.9459 93.3475 15.5328 94.4928C14.1099 95.6425 13.0334 97.1616 12.3012 99.0478C11.569 100.934 11.3406 102.779 11.6171 104.581C11.8848 106.387 12.6498 108.016 13.9143 109.466C15.1787 110.917 16.8617 112.051 18.9655 112.867C21.0692 113.683 23.0834 113.985 25.009 113.773C26.9346 113.56 28.6121 112.88 30.0416 111.733C31.4754 110.595 32.5573 109.082 33.2896 107.195Z" fill="#34B3E5"/>
<path d="M69.4216 60.8492L65.4151 65.2796L51.6211 62.3027L49.0507 65.1452L58.1225 73.3471L54.7609 77.065L32.083 56.5608L39.1636 48.7294C40.7352 46.9907 42.3734 45.7929 44.0771 45.1339C45.7809 44.476 47.4114 44.311 48.9687 44.6399C50.5315 44.9634 51.9446 45.6957 53.2079 46.8388C54.6877 48.1764 55.6439 49.8212 56.0767 51.773C56.5051 53.7205 56.1313 55.7827 54.9587 57.9597L69.4216 60.8492ZM38.4806 55.5893L46.0781 62.4579L49.7982 58.3433C51.0583 56.9499 51.6594 55.5849 51.6014 54.2483C51.5501 52.9162 50.9359 51.7184 49.7589 50.6539C48.5819 49.5895 47.3491 49.1075 46.0606 49.2092C44.7667 49.3054 43.4804 50.0605 42.2007 51.4747L38.4806 55.5893Z" fill="#34B3E5"/>
<path d="M82.4955 16.5732C85.397 15.1011 88.221 14.3667 90.9652 14.3711C93.7159 14.3711 96.2142 15.112 98.4589 16.5929C100.7 18.0671 102.524 20.1905 103.931 22.9631C105.337 25.7346 105.964 28.4416 105.809 31.0831C105.659 33.731 104.765 36.1517 103.126 38.3451C101.495 40.5352 99.2282 42.3668 96.3267 43.8389L87.4166 48.3589L73.5854 21.0932L82.4955 16.5732ZM94.4743 40.1876C97.6622 38.5702 99.6676 36.4676 100.494 33.8775C101.322 31.294 100.939 28.4318 99.3452 25.2898C97.7409 22.1282 95.6382 20.09 93.0339 19.1731C90.4307 18.2573 87.5358 18.6081 84.3479 20.2244L79.9076 22.4779L90.034 42.44L94.4743 40.1876Z" fill="#34B3E5"/>
<path d="M144.829 31.2339C141.991 31.4492 139.331 30.9836 136.849 29.8372C134.367 28.6897 132.339 26.975 130.764 24.6931C129.197 22.4178 128.299 19.7884 128.072 16.8049C127.845 13.8214 128.335 11.0947 129.542 8.62266C130.755 6.14297 132.501 4.1485 134.781 2.64036C137.061 1.13112 139.619 0.268861 142.457 0.0524749C145.324 -0.165004 147.999 0.29946 150.481 1.44587C152.971 2.59227 154.99 4.30041 156.543 6.57027C158.095 8.83249 158.985 11.4543 159.211 14.4378C159.438 17.4213 158.956 20.1556 157.765 22.6396C156.575 25.1325 154.836 27.1335 152.549 28.6427C150.269 30.1519 147.695 31.0153 144.829 31.2339ZM144.499 26.8898C146.516 26.7368 148.281 26.139 149.794 25.0964C151.3 24.0625 152.433 22.6549 153.196 20.8736C153.959 19.0922 154.254 17.077 154.082 14.8279C153.91 12.5777 153.315 10.6379 152.293 9.00625C151.271 7.37571 149.938 6.17029 148.295 5.38999C146.644 4.60313 144.809 4.2862 142.791 4.4403C140.773 4.5933 139.01 5.18453 137.506 6.21072C135.992 7.23145 134.853 8.62485 134.089 10.3909C133.325 12.157 133.029 14.1656 133.201 16.4158C133.372 18.666 133.969 20.6135 134.992 22.2582C136.015 23.903 137.353 25.1226 139.004 25.9171C140.649 26.7193 142.48 27.0439 144.499 26.8898Z" fill="#34B3E5"/>
<path d="M194.095 5.07196L187.139 30.6667L197.118 33.3781L196.055 37.2872L181.24 33.2611L189.258 3.75835L194.095 5.07196Z" fill="#34B3E5"/>
<path d="M230.572 20.1359L234.925 22.6189L219.781 49.1775L215.427 46.6945L230.572 20.1359Z" fill="#34B3E5"/>
<path d="M277.526 61.3071L255.053 82.0998L251.642 78.4136L258.153 51.8309L241.394 67.3375L237.99 63.6578L260.463 42.8651L263.867 46.5437L257.389 73.0958L274.115 57.6198L277.526 61.3071Z" fill="#34B3E5"/>
<path d="M274.422 123.591L272.028 117.493L280.437 101.476L267.702 106.476L265.87 101.811L294.328 90.6372L296.16 95.3026L283.181 100.399L300.502 106.36L302.8 112.215L283.698 105.451L274.422 123.591Z" fill="#34B3E5"/>
<path d="M14.1437 212.749C13.0968 210.062 12.7635 207.345 13.1449 204.595C13.5285 201.852 14.5896 199.383 16.3284 197.189C18.0736 194.992 20.3577 193.344 23.1784 192.245C26.0001 191.145 28.7891 190.815 31.5475 191.255C34.2982 191.699 36.744 192.8 38.8827 194.56C41.0247 196.327 42.6192 198.554 43.6662 201.239C44.7208 203.945 45.0585 206.672 44.6771 209.423C44.2957 212.174 43.2389 214.633 41.5056 216.8C39.768 218.977 37.4893 220.616 34.6687 221.717C31.8469 222.816 29.0536 223.156 26.2865 222.734C23.5303 222.317 21.0801 221.225 18.9392 219.458C16.7972 217.691 15.1983 215.455 14.1437 212.749ZM18.254 211.147C18.9971 213.053 20.0965 214.58 21.5533 215.731C23.0057 216.892 24.7062 217.576 26.6548 217.786C28.6066 218.001 30.647 217.694 32.7758 216.863C34.9058 216.033 36.6085 214.881 37.886 213.407C39.1658 211.939 39.9406 210.289 40.2106 208.457C40.4903 206.629 40.2586 204.762 39.5155 202.857C38.7702 200.945 37.6751 199.41 36.2326 198.254C34.7933 197.088 33.107 196.398 31.1715 196.183C29.2339 195.962 27.2001 196.266 25.0701 197.097C22.9401 197.927 21.2309 199.083 19.9402 200.562C18.6474 202.035 17.8584 203.69 17.5753 205.527C17.2824 207.36 17.5086 209.233 18.254 211.147Z" fill="#34B3E5"/>
<path d="M51.607 268.021L47.5372 263.532L51.9217 249.933L49.3185 247.061L40.1451 255.378L36.7354 251.616L59.6777 230.818L66.8567 238.738C68.4555 240.502 69.5003 242.271 69.9899 244.047C70.4795 245.834 70.4828 247.496 70.0008 249.034C69.5134 250.577 68.6304 251.928 67.3517 253.086C65.8578 254.44 64.1049 255.238 62.094 255.479C60.0875 255.717 58.045 255.132 55.9642 253.725L51.607 268.021ZM60.0209 237.359L52.3282 244.333L56.0975 248.492C57.3783 249.905 58.6919 250.649 60.0383 250.725C61.3946 250.802 62.6667 250.303 63.8535 249.227C65.0458 248.146 65.6556 246.95 65.684 245.637C65.7223 244.325 65.0917 242.952 63.7912 241.517L60.0209 237.359Z" fill="#34B3E5"/>
<path d="M99.4314 262.594C102.374 264.082 104.668 265.948 106.315 268.193C107.959 270.443 108.849 272.925 108.986 275.637C109.127 278.359 108.488 281.123 107.068 283.93C105.645 286.743 103.808 288.876 101.555 290.331C99.3079 291.788 96.7987 292.51 94.0251 292.493C91.2547 292.47 88.3979 291.715 85.456 290.228L76.4333 285.664L90.4088 258.031L99.4314 262.594ZM87.3237 286.534C90.5585 288.17 93.4797 288.546 96.0884 287.664C98.7003 286.791 100.811 284.763 102.42 281.579C104.043 278.37 104.445 275.43 103.628 272.756C102.82 270.08 100.799 267.924 97.5637 266.287L93.0721 264.016L82.832 284.263L87.3237 286.534Z" fill="#34B3E5"/>
<path d="M143.177 305.95C140.303 305.736 137.708 304.862 135.391 303.332C133.082 301.802 131.312 299.779 130.084 297.265C128.856 294.743 128.355 291.971 128.58 288.951C128.805 285.932 129.711 283.273 131.299 280.975C132.886 278.684 134.935 276.954 137.445 275.784C139.963 274.614 142.659 274.136 145.535 274.351C148.431 274.567 151.037 275.44 153.354 276.97C155.671 278.5 157.433 280.516 158.64 283.014C159.854 285.521 160.35 288.284 160.124 291.304C159.899 294.324 159 296.991 157.425 299.304C155.859 301.611 153.816 303.349 151.299 304.519C148.781 305.689 146.074 306.166 143.177 305.95ZM143.505 301.551C145.546 301.703 147.398 301.371 149.066 300.553C150.739 299.743 152.091 298.505 153.12 296.836C154.157 295.169 154.761 293.196 154.93 290.916C155.101 288.637 154.796 286.603 154.016 284.816C153.245 283.028 152.091 281.617 150.555 280.582C149.028 279.541 147.243 278.945 145.203 278.793C143.156 278.64 141.299 278.966 139.633 279.768C137.961 280.563 136.611 281.788 135.582 283.44C134.546 285.093 133.944 287.059 133.773 289.338C133.603 291.618 133.908 293.658 134.686 295.462C135.456 297.264 136.609 298.689 138.144 299.738C139.671 300.794 141.458 301.398 143.505 301.551Z" fill="#34B3E5"/>
<path d="M184.477 271.289L191.55 297.212L201.651 294.456L202.729 298.407L187.729 302.5L179.578 272.625L184.477 271.289Z" fill="#34B3E5"/>
<path d="M212.123 259.871L216.534 257.358L231.857 284.266L227.446 286.779L212.123 259.871Z" fill="#34B3E5"/>
<path d="M250.222 225.641L272.952 246.734L269.498 250.457L242.148 245.93L259.099 261.662L255.646 265.383L232.915 244.289L236.37 240.567L263.687 245.063L246.768 229.362L250.222 225.641Z" fill="#34B3E5"/>
<path d="M297.128 197.597L294.693 203.773L277.404 209.843L290.295 214.926L288.432 219.649L259.625 208.29L261.488 203.567L274.632 208.749L265.902 192.372L268.241 186.44L277.726 204.653L297.128 197.597Z" fill="#34B3E5"/>
<path d="M3.19995 156.123C3.19995 149.59 8.49594 144.294 15.029 144.294C21.5621 144.294 26.8581 149.59 26.8581 156.123C26.8581 162.656 21.5621 167.952 15.029 167.952C8.49594 167.952 3.19995 162.656 3.19995 156.123Z" fill="#34B3E5"/>
<path d="M278.363 156.123C278.363 149.59 283.659 144.294 290.192 144.294C296.725 144.294 302.021 149.59 302.021 156.123C302.021 162.656 296.725 167.952 290.192 167.952C283.659 167.952 278.363 162.656 278.363 156.123Z" fill="#34B3E5"/>
</g>
</g>
</g>
</g>
</g>
</g>
</g>
<defs>
<clipPath id="clip0_17_24">
<rect width="306" height="306" fill="white"/>
</clipPath>
<clipPath id="clip1_17_24">
<rect width="306" height="306" fill="white"/>
</clipPath>
<clipPath id="clip2_17_24">
<rect width="306" height="306" fill="white"/>
</clipPath>
<clipPath id="clip3_17_24">
<rect width="306" height="306" fill="white"/>
</clipPath>
<clipPath id="clip4_17_24">
<rect width="306" height="306" fill="white"/>
</clipPath>
<clipPath id="clip5_17_24">
<rect width="306" height="306" fill="white"/>
</clipPath>
<clipPath id="clip6_17_24">
<rect width="306" height="306" fill="white"/>
</clipPath>
<clipPath id="clip7_17_24">
<rect width="144.25" height="125.513" fill="white" transform="translate(80.875 90.2434)"/>
</clipPath>
<clipPath id="clip8_17_24">
<rect width="144.25" height="125.513" fill="white" transform="translate(80.875 90.2434)"/>
</clipPath>
</defs>
</svg>
